<svg xmlns="http://www.w3.org/2000/svg" xmlns:xlink="http://www.w3.org/1999/xlink" width="2000" zoomAndPan="magnify" viewBox="0 0 1500 1499.999933" height="2000" preserveAspectRatio="xMidYMid meet" version="1.0"><defs><clipPath id="48da1d4fb6"><path d="M 195.316406 61.339844 L 1288.921875 61.339844 L 1288.921875 1387 L 195.316406 1387 Z M 195.316406 61.339844 " clip-rule="nonzero"/></clipPath><clipPath id="6113715bb5"><path d="M 742.117188 61.339844 C 440.128906 61.339844 195.316406 357.902344 195.316406 723.730469 C 195.316406 1089.558594 440.128906 1386.121094 742.117188 1386.121094 C 1044.109375 1386.121094 1288.921875 1089.558594 1288.921875 723.730469 C 1288.921875 357.902344 1044.109375 61.339844 742.117188 61.339844 Z M 742.117188 61.339844 " clip-rule="nonzero"/></clipPath><clipPath id="573c8aefea"><path d="M 0.316406 0.339844 L 1093.921875 0.339844 L 1093.921875 1325 L 0.316406 1325 Z M 0.316406 0.339844 " clip-rule="nonzero"/></clipPath><clipPath id="b21af31bf9"><path d="M 547.117188 0.339844 C 245.128906 0.339844 0.316406 296.902344 0.316406 662.730469 C 0.316406 1028.558594 245.128906 1325.121094 547.117188 1325.121094 C 849.109375 1325.121094 1093.921875 1028.558594 1093.921875 662.730469 C 1093.921875 296.902344 849.109375 0.339844 547.117188 0.339844 Z M 547.117188 0.339844 " clip-rule="nonzero"/></clipPath><clipPath id="7e764748da"><rect x="0" width="1094" y="0" height="1326"/></clipPath><clipPath id="7a49138877"><path d="M 167.074219 1275 L 1350 1275 L 1350 1500 L 167.074219 1500 Z M 167.074219 1275 " clip-rule="nonzero"/></clipPath><clipPath id="56379c0e32"><path d="M 237.574219 1275 L 1279.5 1275 C 1318.4375 1275 1350 1306.5625 1350 1345.5 L 1350 1654.5 C 1350 1693.4375 1318.4375 1725 1279.5 1725 L 237.574219 1725 C 198.640625 1725 167.074219 1693.4375 167.074219 1654.5 L 167.074219 1345.5 C 167.074219 1306.5625 198.640625 1275 237.574219 1275 Z M 237.574219 1275 " clip-rule="nonzero"/></clipPath><clipPath id="b7124e56a6"><path d="M 0.0742188 0 L 1183 0 L 1183 225 L 0.0742188 225 Z M 0.0742188 0 " clip-rule="nonzero"/></clipPath><clipPath id="979e99e54f"><path d="M 70.574219 0 L 1112.5 0 C 1151.4375 0 1183 31.5625 1183 70.5 L 1183 379.5 C 1183 418.4375 1151.4375 450 1112.5 450 L 70.574219 450 C 31.640625 450 0.0742188 418.4375 0.0742188 379.5 L 0.0742188 70.5 C 0.0742188 31.5625 31.640625 0 70.574219 0 Z M 70.574219 0 " clip-rule="nonzero"/></clipPath><clipPath id="6feb85b15c"><rect x="0" width="1183" y="0" height="225"/></clipPath><clipPath id="ceab2da329"><path d="M 324.707031 919.046875 L 477.492188 919.046875 L 477.492188 1314 L 324.707031 1314 Z M 324.707031 919.046875 " clip-rule="nonzero"/></clipPath><clipPath id="e50ba12f25"><path d="M 395.207031 919.046875 L 406.992188 919.046875 C 445.929688 919.046875 477.492188 950.609375 477.492188 989.546875 L 477.492188 1243.378906 C 477.492188 1282.316406 445.929688 1313.878906 406.992188 1313.878906 L 395.207031 1313.878906 C 356.273438 1313.878906 324.707031 1282.316406 324.707031 1243.378906 L 324.707031 989.546875 C 324.707031 950.609375 356.273438 919.046875 395.207031 919.046875 Z M 395.207031 919.046875 " clip-rule="nonzero"/></clipPath><clipPath id="ce81c4b4fd"><path d="M 0.707031 0.046875 L 153.492188 0.046875 L 153.492188 395 L 0.707031 395 Z M 0.707031 0.046875 " clip-rule="nonzero"/></clipPath><clipPath id="4ac60de924"><path d="M 71.207031 0.046875 L 82.992188 0.046875 C 121.929688 0.046875 153.492188 31.609375 153.492188 70.546875 L 153.492188 324.378906 C 153.492188 363.316406 121.929688 394.878906 82.992188 394.878906 L 71.207031 394.878906 C 32.273438 394.878906 0.707031 363.316406 0.707031 324.378906 L 0.707031 70.546875 C 0.707031 31.609375 32.273438 0.046875 71.207031 0.046875 Z M 71.207031 0.046875 " clip-rule="nonzero"/></clipPath><clipPath id="56cb344478"><rect x="0" width="154" y="0" height="395"/></clipPath><clipPath id="3a07accd94"><path d="M 989.839844 919.046875 L 1142.625 919.046875 L 1142.625 1314 L 989.839844 1314 Z M 989.839844 919.046875 " clip-rule="nonzero"/></clipPath><clipPath id="b5e60b9565"><path d="M 1060.339844 919.046875 L 1072.125 919.046875 C 1111.0625 919.046875 1142.625 950.609375 1142.625 989.546875 L 1142.625 1243.378906 C 1142.625 1282.316406 1111.0625 1313.878906 1072.125 1313.878906 L 1060.339844 1313.878906 C 1021.40625 1313.878906 989.839844 1282.316406 989.839844 1243.378906 L 989.839844 989.546875 C 989.839844 950.609375 1021.40625 919.046875 1060.339844 919.046875 Z M 1060.339844 919.046875 " clip-rule="nonzero"/></clipPath><clipPath id="df54dbeb14"><path d="M 0.839844 0.046875 L 153.625 0.046875 L 153.625 395 L 0.839844 395 Z M 0.839844 0.046875 " clip-rule="nonzero"/></clipPath><clipPath id="fbca6cbd5e"><path d="M 71.339844 0.046875 L 83.125 0.046875 C 122.0625 0.046875 153.625 31.609375 153.625 70.546875 L 153.625 324.378906 C 153.625 363.316406 122.0625 394.878906 83.125 394.878906 L 71.339844 394.878906 C 32.40625 394.878906 0.839844 363.316406 0.839844 324.378906 L 0.839844 70.546875 C 0.839844 31.609375 32.40625 0.046875 71.339844 0.046875 Z M 71.339844 0.046875 " clip-rule="nonzero"/></clipPath><clipPath id="8845d6ca28"><rect x="0" width="154" y="0" height="395"/></clipPath><clipPath id="c235637783"><path d="M 485.738281 919.046875 L 638.523438 919.046875 L 638.523438 1369.640625 L 485.738281 1369.640625 Z M 485.738281 919.046875 " clip-rule="nonzero"/></clipPath><clipPath id="3eb3815fa8"><path d="M 556.238281 919.046875 L 568.023438 919.046875 C 606.960938 919.046875 638.523438 950.609375 638.523438 989.546875 L 638.523438 1298.546875 C 638.523438 1337.480469 606.960938 1369.046875 568.023438 1369.046875 L 556.238281 1369.046875 C 517.300781 1369.046875 485.738281 1337.480469 485.738281 1298.546875 L 485.738281 989.546875 C 485.738281 950.609375 517.300781 919.046875 556.238281 919.046875 Z M 556.238281 919.046875 " clip-rule="nonzero"/></clipPath><clipPath id="9ef33bd232"><path d="M 0.738281 0.046875 L 153.523438 0.046875 L 153.523438 450.199219 L 0.738281 450.199219 Z M 0.738281 0.046875 " clip-rule="nonzero"/></clipPath><clipPath id="ac32fa4c93"><path d="M 71.238281 0.046875 L 83.023438 0.046875 C 121.960938 0.046875 153.523438 31.609375 153.523438 70.546875 L 153.523438 379.546875 C 153.523438 418.480469 121.960938 450.046875 83.023438 450.046875 L 71.238281 450.046875 C 32.300781 450.046875 0.738281 418.480469 0.738281 379.546875 L 0.738281 70.546875 C 0.738281 31.609375 32.300781 0.046875 71.238281 0.046875 Z M 71.238281 0.046875 " clip-rule="nonzero"/></clipPath><clipPath id="e511caaf10"><rect x="0" width="154" y="0" height="451"/></clipPath><clipPath id="584fb94a1f"><path d="M 828.808594 921.492188 L 981.589844 921.492188 L 981.589844 1372 L 828.808594 1372 Z M 828.808594 921.492188 " clip-rule="nonzero"/></clipPath><clipPath id="9d857b3aa3"><path d="M 899.308594 921.492188 L 911.089844 921.492188 C 950.027344 921.492188 981.589844 953.058594 981.589844 991.992188 L 981.589844 1300.992188 C 981.589844 1339.929688 950.027344 1371.492188 911.089844 1371.492188 L 899.308594 1371.492188 C 860.371094 1371.492188 828.808594 1339.929688 828.808594 1300.992188 L 828.808594 991.992188 C 828.808594 953.058594 860.371094 921.492188 899.308594 921.492188 Z M 899.308594 921.492188 " clip-rule="nonzero"/></clipPath><clipPath id="5af8bfe838"><path d="M 0.808594 0.492188 L 153.589844 0.492188 L 153.589844 450.601562 L 0.808594 450.601562 Z M 0.808594 0.492188 " clip-rule="nonzero"/></clipPath><clipPath id="d508adc1f8"><path d="M 71.308594 0.492188 L 83.089844 0.492188 C 122.027344 0.492188 153.589844 32.058594 153.589844 70.992188 L 153.589844 379.992188 C 153.589844 418.929688 122.027344 450.492188 83.089844 450.492188 L 71.308594 450.492188 C 32.371094 450.492188 0.808594 418.929688 0.808594 379.992188 L 0.808594 70.992188 C 0.808594 32.058594 32.371094 0.492188 71.308594 0.492188 Z M 71.308594 0.492188 " clip-rule="nonzero"/></clipPath><clipPath id="e36aae3547"><rect x="0" width="154" y="0" height="451"/></clipPath><clipPath id="ff73863177"><path d="M 657.273438 919.046875 L 810.058594 919.046875 L 810.058594 1406 L 657.273438 1406 Z M 657.273438 919.046875 " clip-rule="nonzero"/></clipPath><clipPath id="1311d9e7f9"><path d="M 727.773438 919.046875 L 739.558594 919.046875 C 778.492188 919.046875 810.058594 950.609375 810.058594 989.546875 L 810.058594 1335.144531 C 810.058594 1374.082031 778.492188 1405.644531 739.558594 1405.644531 L 727.773438 1405.644531 C 688.835938 1405.644531 657.273438 1374.082031 657.273438 1335.144531 L 657.273438 989.546875 C 657.273438 950.609375 688.835938 919.046875 727.773438 919.046875 Z M 727.773438 919.046875 " clip-rule="nonzero"/></clipPath><clipPath id="3327a2cea0"><path d="M 0.273438 0.046875 L 153.058594 0.046875 L 153.058594 486.679688 L 0.273438 486.679688 Z M 0.273438 0.046875 " clip-rule="nonzero"/></clipPath><clipPath id="41ed26a78f"><path d="M 70.773438 0.046875 L 82.558594 0.046875 C 121.492188 0.046875 153.058594 31.609375 153.058594 70.546875 L 153.058594 416.144531 C 153.058594 455.082031 121.492188 486.644531 82.558594 486.644531 L 70.773438 486.644531 C 31.835938 486.644531 0.273438 455.082031 0.273438 416.144531 L 0.273438 70.546875 C 0.273438 31.609375 31.835938 0.046875 70.773438 0.046875 Z M 70.773438 0.046875 " clip-rule="nonzero"/></clipPath><clipPath id="0f0d40e9da"><rect x="0" width="154" y="0" height="487"/></clipPath><clipPath id="5803ecbd32"><path d="M 452.757812 360.355469 L 1031.480469 360.355469 L 1031.480469 1088 L 452.757812 1088 Z M 452.757812 360.355469 " clip-rule="nonzero"/></clipPath><clipPath id="52e84ca839"><path d="M 742.117188 360.355469 C 582.308594 360.355469 452.757812 523.042969 452.757812 723.730469 C 452.757812 924.417969 582.308594 1087.105469 742.117188 1087.105469 C 901.929688 1087.105469 1031.480469 924.417969 1031.480469 723.730469 C 1031.480469 523.042969 901.929688 360.355469 742.117188 360.355469 Z M 742.117188 360.355469 " clip-rule="nonzero"/></clipPath><clipPath id="fea3fa7454"><path d="M 0.757812 0.355469 L 579.480469 0.355469 L 579.480469 727 L 0.757812 727 Z M 0.757812 0.355469 " clip-rule="nonzero"/></clipPath><clipPath id="a8c37c50bd"><path d="M 290.117188 0.355469 C 130.308594 0.355469 0.757812 163.042969 0.757812 363.730469 C 0.757812 564.417969 130.308594 727.105469 290.117188 727.105469 C 449.929688 727.105469 579.480469 564.417969 579.480469 363.730469 C 579.480469 163.042969 449.929688 0.355469 290.117188 0.355469 Z M 290.117188 0.355469 " clip-rule="nonzero"/></clipPath><clipPath id="6072f10e63"><rect x="0" width="580" y="0" height="728"/></clipPath></defs><rect x="-150" width="1800" fill="#ffffff" y="-149.999993" height="1799.99992" fill-opacity="1"/><rect x="-150" width="1800" fill="#000000" y="-149.999993" height="1799.99992" fill-opacity="1"/><g clip-path="url(#48da1d4fb6)"><g clip-path="url(#6113715bb5)"><g transform="matrix(1, 0, 0, 1, 195, 61)"><g clip-path="url(#7e764748da)"><g clip-path="url(#573c8aefea)"><g clip-path="url(#b21af31bf9)"><path fill="#ffffff" d="M 0.316406 0.339844 L 1093.921875 0.339844 L 1093.921875 1324.628906 L 0.316406 1324.628906 Z M 0.316406 0.339844 " fill-opacity="1" fill-rule="nonzero"/></g></g></g></g></g></g><g clip-path="url(#7a49138877)"><g clip-path="url(#56379c0e32)"><g transform="matrix(1, 0, 0, 1, 167, 1275)"><g clip-path="url(#6feb85b15c)"><g clip-path="url(#b7124e56a6)"><g clip-path="url(#979e99e54f)"><path fill="#000000" d="M 0.0742188 0 L 1183.082031 0 L 1183.082031 450 L 0.0742188 450 Z M 0.0742188 0 " fill-opacity="1" fill-rule="nonzero"/></g></g></g></g></g></g><g clip-path="url(#ceab2da329)"><g clip-path="url(#e50ba12f25)"><g transform="matrix(1, 0, 0, 1, 324, 919)"><g clip-path="url(#56cb344478)"><g clip-path="url(#ce81c4b4fd)"><g clip-path="url(#4ac60de924)"><path fill="#ffffff" d="M 0.707031 0.046875 L 153.492188 0.046875 L 153.492188 395.136719 L 0.707031 395.136719 Z M 0.707031 0.046875 " fill-opacity="1" fill-rule="nonzero"/></g></g></g></g></g></g><g clip-path="url(#3a07accd94)"><g clip-path="url(#b5e60b9565)"><g transform="matrix(1, 0, 0, 1, 989, 919)"><g clip-path="url(#8845d6ca28)"><g clip-path="url(#df54dbeb14)"><g clip-path="url(#fbca6cbd5e)"><path fill="#ffffff" d="M 0.839844 0.046875 L 153.625 0.046875 L 153.625 395.136719 L 0.839844 395.136719 Z M 0.839844 0.046875 " fill-opacity="1" fill-rule="nonzero"/></g></g></g></g></g></g><g clip-path="url(#c235637783)"><g clip-path="url(#3eb3815fa8)"><g transform="matrix(1, 0, 0, 1, 485, 919)"><g clip-path="url(#e511caaf10)"><g clip-path="url(#9ef33bd232)"><g clip-path="url(#ac32fa4c93)"><path fill="#ffffff" d="M 0.738281 0.046875 L 153.523438 0.046875 L 153.523438 450.042969 L 0.738281 450.042969 Z M 0.738281 0.046875 " fill-opacity="1" fill-rule="nonzero"/></g></g></g></g></g></g><g clip-path="url(#584fb94a1f)"><g clip-path="url(#9d857b3aa3)"><g transform="matrix(1, 0, 0, 1, 828, 921)"><g clip-path="url(#e36aae3547)"><g clip-path="url(#5af8bfe838)"><g clip-path="url(#d508adc1f8)"><path fill="#ffffff" d="M 0.808594 0.492188 L 153.589844 0.492188 L 153.589844 450.492188 L 0.808594 450.492188 Z M 0.808594 0.492188 " fill-opacity="1" fill-rule="nonzero"/></g></g></g></g></g></g><g clip-path="url(#ff73863177)"><g clip-path="url(#1311d9e7f9)"><g transform="matrix(1, 0, 0, 1, 657, 919)"><g clip-path="url(#0f0d40e9da)"><g clip-path="url(#3327a2cea0)"><g clip-path="url(#41ed26a78f)"><path fill="#ffffff" d="M 0.273438 0.046875 L 153.058594 0.046875 L 153.058594 486.449219 L 0.273438 486.449219 Z M 0.273438 0.046875 " fill-opacity="1" fill-rule="nonzero"/></g></g></g></g></g></g><g clip-path="url(#5803ecbd32)"><g clip-path="url(#52e84ca839)"><g transform="matrix(1, 0, 0, 1, 452, 360)"><g clip-path="url(#6072f10e63)"><g clip-path="url(#fea3fa7454)"><g clip-path="url(#a8c37c50bd)"><path fill="#000000" d="M 0.757812 0.355469 L 579.480469 0.355469 L 579.480469 726.015625 L 0.757812 726.015625 Z M 0.757812 0.355469 " fill-opacity="1" fill-rule="nonzero"/></g></g></g></g></g></g></svg>